# xmcd
#
# Track frame offsets:
#	150
#	14716
#	31305
#	50820
#	68950
#	81719
#	98832
#	115648
#	131959
#	148238
#	163285
#	176838
#	191324
#	207047
#	223306
#	237401
#	250086
#	262933
#	276215
#	291352
#	306798
#	307715
#	308395
#	309053
#	309760
#	310568
#	311265
#	311995
#	312760
#	313605
#	314630
#	315345
#	316085
#	316835
#	317695
#	318480
#	319265
#	320015
#	320895
#	321868
#	322594
#	323268
#	323984
#	324751
#	325524
#	326265
#	327019
#	327824
#	328835
#	329607
#	330297
#	331017
#	331883
#	332655
#	333395
#	334183
#	335066
#	335731
#	336373
#	337111
#	337808
#	338493
#	339181
#
# Disc length: 4530 seconds
#
# Revision: 2
# Processed by: cddbd v1.5.2PL0 Copyright (c) Steve Scherf et al.
# Submitted via: audiograbber 1.83.01
#
DISCID=a211b03f
DTITLE=Various Artist - CDX Volume 633 (May 9, 2016)
DYEAR=2016
DGENRE=Country
TTITLE0=Alabama - Come Find Me 
TTITLE1=Josh Turner - Hometown Girl
TTITLE2=Chris Stapleton - Parachute
TTITLE3=Hillary Scott and The Scott Family - Thy Will
TTITLE4=Troy Johnson - Need Me Some Country  
TTITLE5=Wayne Toups - A Good One
TTITLE6=Stickers - Ain't Nothin' Better
TTITLE7=Madison Station - Back in the Day 
TTITLE8=Shane Owens - Country Never Goes Out of Style
TTITLE9=Steve Dorian - Edge Of 18
TTITLE10=Luk Nichols - Home Made Lovin' 
TTITLE11=Tony McKee - Lightning Bugs
TTITLE12=Corinne Cook - Little Miss Understanding
TTITLE13=Billy Lord - Netflix and Chill 
TTITLE14=Hillbilly Vegas - Shake It Like A Hillbilly
TTITLE15=Nick Smith - She Ain't LA
TTITLE16=Brad Puckett - Start Your Engines
TTITLE17=Vince Hatfield - Okie From Muskogee's Headed Home
TTITLE18=Mallory Johnson - Tupelo
TTITLE19=SaraBeth - You Rock My Rodeo
TTITLE20=James Robert Webb - Radio Liner - My New Single
TTITLE21=James Robert Webb - Radio Liner - Today's Best Country
TTITLE22=James Robert Webb - Radio Liner - Kickin' Country
TTITLE23=James Robert Webb - Radio Liner - Hometown Country
TTITLE24=James Robert Webb - Radio Liner - Super Country
TTITLE25=James Robert Webb - Radio Liner - Today's Hot Country
TTITLE26=James Robert Webb - Radio Liner - The Best In Today's Country
TTITLE27=James Robert Webb - Radio Liner - More of the Country You Love
TTITLE28=James Robert Webb - Radio Liner - Howlin' Country
TTITLE29=Jessi G - Radio Liner - My New Single
TTITLE30=Jessi G - Radio Liner - Today's Best Country
TTITLE31=Jessi G - Radio Liner - Kickin' Country
TTITLE32=Jessi G - Radio Liner - Hometown Country
TTITLE33=Jessi G - Radio Liner - Super Country
TTITLE34=Jessi G - Radio Liner - Today's Hot Country Music
TTITLE35=Jessi G - Radio Liner - Best In Today's Country
TTITLE36=Jessi G - Radio Liner - More of the Country 
TTITLE37=Jessi G - Radio Liner - Howlin' Country
TTITLE38=Jon and Angela - Radio Liner - Our New Single
TTITLE39=Jon and Angela - Radio Liner - Today's Best Country
TTITLE40=Jon and Angela - Radio Liner - Kickin' Country
TTITLE41=Jon and Angela - Radio Liner - Hometown Country
TTITLE42=Jon and Angela - Radio Liner - Super Country
TTITLE43=Jon and Angela - Radio Liner - Today's Hot Country 
TTITLE44=Jon and Angela - Radio Liner - Best In Today's Country
TTITLE45=Jon and Angela - Radio Liner - More of the Country
TTITLE46=Jon and Angela - Radio Liner - Howlin' Country
TTITLE47=Leslie Cours Mather - Radio Liner - My New Single
TTITLE48=Leslie Cours Mather - Radio Liner - Today's Best Country
TTITLE49=Leslie Cours Mather - Radio Liner - Kickin' Country
TTITLE50=Leslie Cours Mather - Radio Liner - Hometown Country
TTITLE51=Leslie Cours Mather - Radio Liner - Super Country
TTITLE52=Leslie Cours Mather - Radio Liner - Today's Hot Country
TTITLE53=Leslie Cours Mather - Radio Liner - Best In Country
TTITLE54=Leslie Cours Mather - Radio Liner - More of the Country You Love
TTITLE55=Mike Smith - Radio Liner - My New Single
TTITLE56=Mike Smith - Radio Liner - Today's Best Country
TTITLE57=Mike Smith - Radio Liner - Hometown country
TTITLE58=Mike Smith - Radio Liner - Super Country
TTITLE59=Mike Smith - Radio Liner - Today's Hot Country
TTITLE60=Mike Smith - Radio Liner - Best In Country
TTITLE61=Mike Smith - Radio Liner - More of the Country You Love
TTITLE62=Mike Smith - Radio Liner - Howlin' Country
EXTD=
EXTT0=
EXTT1=
EXTT2=
EXTT3=
EXTT4=
EXTT5=
EXTT6=
EXTT7=
EXTT8=
EXTT9=
EXTT10=
EXTT11=
EXTT12=
EXTT13=
EXTT14=
EXTT15=
EXTT16=
EXTT17=
EXTT18=
EXTT19=
EXTT20=
EXTT21=
EXTT22=
EXTT23=
EXTT24=
EXTT25=
EXTT26=
EXTT27=
EXTT28=
EXTT29=
EXTT30=
EXTT31=
EXTT32=
EXTT33=
EXTT34=
EXTT35=
EXTT36=
EXTT37=
EXTT38=
EXTT39=
EXTT40=
EXTT41=
EXTT42=
EXTT43=
EXTT44=
EXTT45=
EXTT46=
EXTT47=
EXTT48=
EXTT49=
EXTT50=
EXTT51=
EXTT52=
EXTT53=
EXTT54=
EXTT55=
EXTT56=
EXTT57=
EXTT58=
EXTT59=
EXTT60=
EXTT61=
EXTT62=
PLAYORDER=
